:SAMPLES-PER-SECOND 30
:FULLY-SPECIFIED
:DEGREES
545
root  56.5466 38.3732 15.0557 178.498 -15.8202 173.829
RightUpLeg  -7.56829 -17.8273 -26.2928
RightLeg  11.0577 4.66501 0.233017
RightFoot  -4.05792 -0.646064 9.69068
RightToes  5.82063e-011 0 -3.6325e-017
Spine  13.4538 -1.86317 -2.08523
Spine1  9.01153 -2.01263 -1.71355
HEad  -12.9964 -14.6252 0.668087
LeftShoulder1  0.307773 2.50499 -24.5594
LeftArm  3.59137 -21.1659 -54.8538
LeftForeArm  27.5903 -72.8479 -37.2181
LeftHand  -0.027898 5.52054 0.993578
RightShoulder  -0.371608 -4.71204 23.7497
RightArm  -28.0298 -2.63883 37.1441
RightForeArm  117.459 73.4315 138.889
RightHand  -1.28918 6.21249 -13.1506
LeftUpLeg  -7.97413 23.837 -3.8029
LeftLeg  21.1254 12.4608 4.15427
LeftFoot  -9.21972 0.0158871 2.1225
LeftToes  -1.20963e-009 8.6283e-011 2.04439e-011
546
root  56.0783 38.3951 15.0115 177.832 -19.0916 174.363
RightUpLeg  -8.63295 -12.4438 -25.1025
RightLeg  17.8201 4.68851 1.52182
RightFoot  -4.25568 -0.610703 9.37501
RightToes  5.82063e-011 0 -3.6325e-017
Spine  13.4173 -2.02599 -2.72942
Spine1  9.16749 -2.46234 -1.3542
HEad  -13.1236 -14.0581 1.16411
LeftShoulder1  0.298971 2.51805 -24.2609
LeftArm  3.85988 -21.0936 -54.9924
LeftForeArm  25.9134 -72.2796 -35.8012
LeftHand  -0.0233876 5.48913 3.04088
RightShoulder  -0.360144 -4.65022 24.2041
RightArm  -26.2803 -2.41527 38.4537
RightForeArm  116.539 73.8578 137.565
RightHand  -1.30546 6.66578 -12.8448
LeftUpLeg  -7.08181 20.0787 -3.7515
LeftLeg  21.2095 13.2535 3.85626
LeftFoot  -9.67809 0.0183433 2.76348
LeftToes  -1.20963e-009 8.6283e-011 2.04439e-011
547
root  55.633 38.4247 14.935 177.33 -22.3901 174.878
RightUpLeg  -10.0817 -10.2115 -22.9489
RightLeg  24.4716 4.36575 1.95717
RightFoot  -4.39037 -0.581475 9.06172
RightToes  5.82063e-011 0 -3.6325e-017
Spine  13.3123 -2.3982 -3.928
Spine1  9.3408 -3.45997 0.0311036
HEad  -13.5454 -12.2492 1.81947
LeftShoulder1  0.0739489 3.27285 -25.4379
LeftArm  4.28408 -21.636 -53.8775
LeftForeArm  24.1707 -71.7642 -34.6965
LeftHand  -0.0325606 5.07322 2.7665
RightShoulder  -0.108724 -3.8513 22.9741
RightArm  -24.6607 -2.32573 41.198
RightForeArm  115.824 74.3844 135.908
RightHand  -1.18237 6.21725 -12.0942
LeftUpLeg  -6.19104 16.6254 -3.77455
LeftLeg  20.9263 13.5526 3.33303
LeftFoot  -10.1079 0.0230607 3.47004
LeftToes  -1.20963e-009 8.6283e-011 2.04439e-011
548
root  55.1398 38.4642 14.8302 176.761 -25.5293 175.002
RightUpLeg  -11.469 -8.9949 -20.9416
RightLeg  30.418 3.72608 2.12438
RightFoot  -4.45251 -0.538345 8.42552
RightToes  5.82063e-011 0 -3.6325e-017
Spine  13.5062 -2.29955 -4.61341
Spine1  9.44098 -3.67248 0.66926
HEad  -13.9315 -11.398 2.68564
LeftShoulder1  0.125795 3.09888 -24.8024
LeftArm  4.96879 -22.1418 -54.8635
LeftForeArm  22.1553 -70.9936 -33.0596
LeftHand  -0.0346642 4.9867 3.11822
RightShoulder  -0.179364 -4.08142 23.354
RightArm  -23.3863 -2.154 42.0003
RightForeArm  116.224 74.5585 135.442
RightHand  -1.0614 6.2118 -10.9131
LeftUpLeg  -4.72663 13.4825 -4.26145
LeftLeg  20.13 14.0071 2.91546
LeftFoot  -10.5272 0.0394552 3.38228
LeftToes  -1.20963e-009 8.6283e-011 2.04439e-011
549
root  54.6818 38.4925 14.6952 176.762 -28.5222 175.166
RightUpLeg  -13.571 -7.88956 -18.3707
RightLeg  35.1131 2.73456 1.82644
RightFoot  -4.50682 -0.512128 8.04608
RightToes  5.82063e-011 0 -3.6325e-017
Spine  13.1994 -2.36867 -5.1147
Spine1  9.45602 -3.91516 1.11594
HEad  -14.1021 -10.5149 3.28644
LeftShoulder1  0.156861 2.99122 -24.3105
LeftArm  5.42614 -22.2687 -55.537
LeftForeArm  21.7327 -70.6019 -32.1913
LeftHand  -0.0295268 5.20782 3.15161
RightShoulder  -0.212771 -4.18511 23.7456
RightArm  -22.2471 -1.58094 42.5786
RightForeArm  115.192 74.7001 134.804
RightHand  -1.20438 6.78716 -11.7635
LeftUpLeg  -3.97075 11.6361 -4.72686
LeftLeg  19.4919 13.2295 2.30952
LeftFoot  -11.0258 0.0562176 3.60527
LeftToes  -1.20963e-009 8.6283e-011 2.04439e-011
550
root  54.1805 38.5247 14.5386 176.508 -31.056 175.169
RightUpLeg  -15.246 -7.04448 -15.8171
RightLeg  37.7749 2.34951 1.69836
RightFoot  -4.6673 -0.462687 7.37945
RightToes  5.82063e-011 0 -3.6325e-017
Spine  12.9574 -2.16502 -5.61733
Spine1  9.97551 -3.9042 1.74104
HEad  -14.69 -9.63108 3.3035
LeftShoulder1  0.22461 2.75704 -23.8095
LeftArm  5.62017 -22.5558 -56.5567
LeftForeArm  21.5319 -70.3314 -31.6033
LeftHand  -0.0412691 4.53068 2.54454
RightShoulder  -0.25885 -4.34382 23.5523
RightArm  -21.9296 -0.847454 42.8104
RightForeArm  114.5 74.5923 135.015
RightHand  -1.32382 6.86218 -12.8184
LeftUpLeg  -2.64909 10.074 -5.30014
LeftLeg  18.7103 12.6295 1.82417
LeftFoot  -11.448 0.0723689 3.70134
LeftToes  -1.20963e-009 8.6283e-011 2.04439e-011
551
root  53.6573 38.529 14.3928 176.69 -33.197 174.984
RightUpLeg  -17.1373 -6.50854 -13.3863
RightLeg  38.238 2.3185 1.69842
RightFoot  -4.80036 -0.442849 7.17097
RightToes  5.82063e-011 0 -3.6325e-017
Spine  12.7427 -2.05241 -5.69209
Spine1  10.0189 -3.75155 1.89047
HEad  -15.0797 -8.42358 2.97428
LeftShoulder1  0.346904 2.34616 -23.6732
LeftArm  5.0014 -22.6279 -56.6581
LeftForeArm  21.7979 -70.1368 -31.117
LeftHand  -0.0390631 4.45232 2.004
RightShoulder  -0.2203 -4.22734 22.9282
RightArm  -22.6089 -0.431596 42.8584
RightForeArm  115.834 74.4284 135.772
RightHand  -1.20918 6.41338 -12.1728
LeftUpLeg  -1.7075 8.91617 -6.12186
LeftLeg  18.02 11.9041 1.42504
LeftFoot  -11.9231 0.0936153 4.26811
LeftToes  -1.20963e-009 8.6283e-011 2.04439e-011
552
root  53.1259 38.5087 14.2299 176.692 -35.4469 174.999
RightUpLeg  -18.4125 -6.04477 -10.8802
RightLeg  36.5058 2.44699 1.69424
RightFoot  -5.12113 -0.444935 7.53311
RightToes  5.82063e-011 0 -3.6325e-017
Spine  12.7524 -2.14649 -5.71256
Spine1  10.0904 -3.90735 2.35571
HEad  -15.716 -6.4325 2.96021
LeftShoulder1  0.282346 2.57649 -24.1483
LeftArm  4.492 -23.0319 -56.5217
LeftForeArm  21.9888 -70.1811 -31.1804
LeftHand  -0.0344652 4.51173 1.39673
RightShoulder  -0.108389 -3.86257 21.8595
RightArm  -23.7203 0.00859906 42.5261
RightForeArm  116.72 74.1995 136.617
RightHand  -1.25719 6.66759 -12.3838
LeftUpLeg  -0.860958 8.40742 -6.69861
LeftLeg  17.8406 10.381 1.14476
LeftFoot  -12.561 0.127691 4.91722
LeftToes  -1.20963e-009 8.6283e-011 2.04439e-011
553
root  52.5612 38.498 14.0411 176.754 -37.9131 175.1
RightUpLeg  -19.3246 -5.6882 -8.50904
RightLeg  32.9317 2.31694 1.37779
RightFoot  -5.1662 -0.432929 7.36481
RightToes  5.82063e-011 0 -3.6325e-017
Spine  12.641 -2.52167 -5.2201
Spine1  10.2321 -4.11142 2.18427
HEad  -16.0747 -5.34478 2.61849
LeftShoulder1  0.28121 2.56857 -23.7705
LeftArm  3.56392 -23.1554 -56.5881
LeftForeArm  21.4726 -70.1302 -31.1639
LeftHand  -0.0459045 4.16757 2.4572
RightShoulder  -0.124509 -3.92081 21.6922
RightArm  -24.7389 0.430916 41.7319
RightForeArm  118.259 73.881 137.806
RightHand  -1.18997 6.37659 -12.0216
LeftUpLeg  0.0772046 8.13194 -7.13646
LeftLeg  17.5045 8.53224 0.779328
LeftFoot  -13.295 0.169369 5.23862
LeftToes  -1.20963e-009 8.6283e-011 2.04439e-011
554
root  51.9973 38.4747 13.8419 176.825 -40.3413 175.217
RightUpLeg  -19.8352 -5.64645 -6.34413
RightLeg  27.8473 2.17299 1.02501
RightFoot  -5.06985 -0.424049 7.10322
RightToes  5.82063e-011 0 -3.6325e-017
Spine  12.66 -2.67836 -4.59531
Spine1  10.2048 -4.10037 2.16376
HEad  -15.9609 -3.96238 1.942
LeftShoulder1  0.374335 2.22935 -23.0895
LeftArm  2.58996 -23.1382 -57.1701
LeftForeArm  21.0743 -69.7733 -30.463
LeftHand  -0.0493916 4.24316 2.91018
RightShoulder  -0.219102 -4.24833 22.0037
RightArm  -26.2183 0.615206 39.8431
RightForeArm  118.466 73.6177 138.559
RightHand  -1.21495 6.76571 -11.8912
LeftUpLeg  0.906692 8.03129 -7.54556
LeftLeg  17.4302 6.43153 0.570126
LeftFoot  -13.9451 0.217517 5.86865
LeftToes  -1.20963e-009 8.6283e-011 2.04439e-011
